<svg xmlns="http://www.w3.org/2000/svg" xmlns:xlink="http://www.w3.org/1999/xlink" width="72" height="24" viewBox="0 0 72 24"><defs><path id="rj1ba" d="M724.61 36.67c-.3 1.64.3 2.52 1.8 2.52h.98c.44-.04.7.14.59.62l-.59 3.39c-.07.36-.26.58-.62.62-.55.1-1.25.18-1.87.18-4.06 0-6.65-2.44-5.7-7.77l1.16-6.59h-26.49c-1.32 0-2.08 0-2.29.91-.2.91.93 1.15 2.65 1.55 2.76.62 6.2 2 5.45 6.26-.72 3.86-3.9 5.64-8.39 5.64h-7a.36.36 0 0 1-.28-.43l.7-3.71a.72.72 0 0 1 .7-.6h6.06c1.72 0 2.62-.34 2.8-1.25.18-.9-1.04-1.18-2.48-1.5-3.5-.74-6.3-2.34-5.52-6.27.76-3.67 3.77-5.24 8.1-5.24h26.8l.78-4.4c.06-.35.37-.6.72-.6h3.95a.73.73 0 0 1 .72.85l-.57 3.3a.72.72 0 0 0 .72.85h5.54l.73-4.4a.7.7 0 0 1 .67-.6h3.72l.11.01c.38.07.62.45.56.84l-.68 4.15h3.58c.18.04.3.23.27.43l-.66 3.9a.35.35 0 0 1-.33.3h-3.58l-1.17 7.04c-.27 1.64.28 2.52 1.68 2.52h.93c.4-.04.65.14.54.62l-.54 3.39c-.07.36-.24.58-.59.62-.51.1-1.16.18-1.74.18-3.8 0-6.24-2.44-5.35-7.77l1.09-6.59h-6.42zM703.28 31h15.36a.37.37 0 0 1 .35.44l-.7 4.09c-.07.38-.28.56-.64.56H707.6l-.02.14c-.36 2 .51 2.98 2.5 2.98h7.07a.37.37 0 0 1 .36.43l-.55 3.72a.73.73 0 0 1-.71.64h-6.93c-4.73 0-8.02-3.02-7.2-7.92l.8-4.77a.37.37 0 0 1 .36-.31zm39.42 11.94l-.25.05a.38.38 0 0 1-.14 0 .37.37 0 0 1-.3-.42l3.23-17.27c.03-.17.19-.3.37-.3h9.93c.3.06.5.35.45.64l-.61 3.41a.74.74 0 0 1-.74.6h-4.59l-1.57 7.6a7.38 7.38 0 0 1-5.78 5.7z"/></defs><g><g transform="translate(-684 -20)"><use fill="#fff" xlink:href="#rj1ba"/></g></g></svg>