<svg xmlns="http://www.w3.org/2000/svg" xmlns:xlink="http://www.w3.org/1999/xlink" width="16" height="22" viewBox="0 0 16 22"><defs><path id="biusa" d="M1225 25a3 3 0 1 1 6 0 3 3 0 0 1-6 0z"/><path id="biusb" d="M1227 30v-1h2v1a2 2 0 0 0 .4 1.2l1.8 2.4a4 4 0 0 1 .8 2.4v1a3 3 0 0 1-3 3h-10a3 3 0 0 1-3-3v-1a4 4 0 0 1 .8-2.4l1.8-2.4a2 2 0 0 0 .4-1.2v-2a4 4 0 0 1 4-4h1v2h-1a2 2 0 0 0-2 2v2a4 4 0 0 1-.8 2.4l-1.8 2.4a2 2 0 0 0-.4 1.2v1a1 1 0 0 0 1 1h10a1 1 0 0 0 1-1v-1a2 2 0 0 0-.4-1.2l-1.8-2.4a4 4 0 0 1-.8-2.4z"/><path id="biusc" d="M1221 41h2a1 1 0 0 0 2 0h2a3 3 0 0 1-6 0z"/></defs><g><g transform="translate(-1216 -22)"><g><g><use fill="#f17878" xlink:href="#biusa"/></g></g></g><g transform="translate(-1216 -22)"><use fill="#a8a8a8" xlink:href="#biusb"/></g><g transform="translate(-1216 -22)"><use fill="#a8a8a8" xlink:href="#biusc"/></g></g></svg>