<svg xmlns="http://www.w3.org/2000/svg" xmlns:xlink="http://www.w3.org/1999/xlink" width="16" height="20" viewBox="0 0 16 20"><defs><path id="dmz4a" d="M1380 32a4 4 0 1 0 0-8 4 4 0 0 0 0 8zm0 2a6 6 0 1 1 0-12 6 6 0 0 1 0 12z"/><path id="dmz4b" d="M1374 42h-2v-3a7 7 0 0 1 7-7h2a7 7 0 0 1 7 7v3h-2v-3a5 5 0 0 0-5-5h-2a5 5 0 0 0-5 5z"/></defs><g><g transform="translate(-1372 -22)"><use fill="#a8a8a8" xlink:href="#dmz4a"/></g><g transform="translate(-1372 -22)"><use fill="#a8a8a8" xlink:href="#dmz4b"/></g></g></svg>